<svg xmlns="http://www.w3.org/2000/svg" width="30" height="30" viewBox="0 0 120 120">
  <defs>
    <style>
      .cls-1 {
        fill: #eb6657;
        fill-rule: evenodd;
      }
    </style>
  </defs>
  <path id="Call_in" data-name="Call in" class="cls-1" d="M26.914,12.69a1.517,1.517,0,0,1,.274.025C29.065,15.443,39.142,30.707,40.97,33.56a4.861,4.861,0,0,1-.668,2.151c-0.61,1.161-2.506,4.542-5.205,9.275L33,48.666l2.435,3.468c1.815,2.579,6.133,8.188,14.666,16.724,8.568,8.574,14.154,12.884,16.722,14.688l3.468,2.437,3.679-2.1c3.566-2.039,7.874-4.481,9.275-5.218a4.741,4.741,0,0,1,2.1-.64,0.5,0.5,0,0,1,.085,0c2.555,1.6,18.14,11.957,20.89,13.844a2.268,2.268,0,0,1-.5,1.574c-4.234,5.866-10.243,11.993-12.6,12.869C80.7,105.728,63.138,94.722,43.7,75.269S13.259,38.257,12.679,25.776c0.844-2.359,6.968-8.412,12.779-12.615a2.645,2.645,0,0,1,1.457-.471m0-6.677A9.279,9.279,0,0,0,21.648,7.68c-0.156.11-15.862,11.5-15.653,17.982,0.58,18.2,18.257,39.591,32.985,54.328S75.086,112.42,93.349,113H93.5c6.394,0,17.635-15.514,17.742-15.668,2.95-4.216,1.874-8.855-.811-10.74-1.633-1.148-19.509-13.041-21.7-14.379a6.436,6.436,0,0,0-3.386-.87,11.384,11.384,0,0,0-5.208,1.4c-1.721.906-6.932,3.874-9.481,5.332-2.245-1.578-7.522-5.623-15.836-13.945C46.56,55.874,42.483,50.554,40.9,48.294c1.453-2.55,4.416-7.763,5.316-9.479,1.707-3.235,1.9-6.466.515-8.643-1.3-2.054-13.137-20.015-14.359-21.7a6.617,6.617,0,0,0-5.452-2.456h0ZM111.4,12.08l-27.32,27.3,15.8,0.042a2.745,2.745,0,0,1,2.8,2.492l0,1.713a2.58,2.58,0,0,1-2.5,2.5l-23.933-.1c-0.026,0-.044.011-0.067,0.011l-1.221.029a2.307,2.307,0,0,1-1.71-.684,2.25,2.25,0,0,1-.582-1.715L72.8,42.436c0-.023-0.09-0.041-0.09-0.066l0.069-24.1a2.319,2.319,0,0,1,2.5-2.183l1.713,0a2.4,2.4,0,0,1,2.387,2.494L79.282,34.73l27.4-27.372A3.338,3.338,0,0,1,111.4,12.08Z"/>
</svg>
